<svg xmlns="http://www.w3.org/2000/svg" xmlns:xlink="http://www.w3.org/1999/xlink" width="368.136" height="36.907" viewBox="0 0 368.136 36.907">
  <defs>
    <clipPath id="clip-path">
      <rect id="Rectangle_1" data-name="Rectangle 1" width="368.136" height="36.907"/>
    </clipPath>
  </defs>
  <g id="Group_3" data-name="Group 3" transform="translate(0 0.001)">
    <path id="Path_1" data-name="Path 1" d="M16.141,7.019l5.1,11.184H11.077Zm-3.1-5.767L0,29.018H6.18l2.74-6.051h14.5l2.76,6.051H32.4L19.226,1.252Z" transform="translate(0 -0.694)"/>
    <path id="Path_2" data-name="Path 2" d="M104.959,1.252h5.708V29.018h-5.708Zm5.021,11.459H132v4.763H109.98ZM131.051,1.252h5.708V29.018h-5.708Z" transform="translate(-58.182 -0.694)"/>
    <g id="Group_2" data-name="Group 2" transform="translate(0 -0.001)">
      <g id="Group_1" data-name="Group 1" clip-path="url(#clip-path)">
        <path id="Path_3" data-name="Path 3" d="M199.458,36.953a18.238,18.238,0,0,1-7.1-1.288,10.7,10.7,0,0,1-4.785-3.755,10.37,10.37,0,0,1-1.716-6.072,10.576,10.576,0,0,1,1.716-6.116,10.6,10.6,0,0,1,4.785-3.8,18.246,18.246,0,0,1,7.1-1.287,17.931,17.931,0,0,1,7.06,1.287,10.631,10.631,0,0,1,4.742,3.8,10.579,10.579,0,0,1,1.717,6.116,10.374,10.374,0,0,1-1.717,6.072,10.736,10.736,0,0,1-4.742,3.755,17.922,17.922,0,0,1-7.06,1.288m0-4.291a9.753,9.753,0,0,0,4.013-.794,6.234,6.234,0,0,0,3.841-6.03,6.678,6.678,0,0,0-1.03-3.755,6.567,6.567,0,0,0-2.789-2.382,9.5,9.5,0,0,0-4.034-.816,9.683,9.683,0,0,0-4.034.816,6.716,6.716,0,0,0-2.854,2.36,6.555,6.555,0,0,0-1.051,3.777,6.209,6.209,0,0,0,3.862,6.03,10.009,10.009,0,0,0,4.077.794" transform="translate(-103.024 -8.113)"/>
        <path id="Path_4" data-name="Path 4" d="M248.771,8.437h16.565v4.335H248.771ZM254.264,2.6h5.579V29.765h-5.579Z" transform="translate(-137.901 -1.441)"/>
        <path id="Path_5" data-name="Path 5" d="M349.9,18.325a10.571,10.571,0,0,1-2.36,5.708,12.368,12.368,0,0,1-5.365,3.605,23.449,23.449,0,0,1-8.068,1.244,26.618,26.618,0,0,1-7.145-.9,16.09,16.09,0,0,1-5.579-2.7,12.3,12.3,0,0,1-3.626-4.485,14.383,14.383,0,0,1-1.288-6.287A14.523,14.523,0,0,1,317.752,8.2a12.449,12.449,0,0,1,3.626-4.528A16.17,16.17,0,0,1,326.957.923,26.054,26.054,0,0,1,334.1,0a22.918,22.918,0,0,1,8.09,1.287,12.58,12.58,0,0,1,5.386,3.67,10.479,10.479,0,0,1,2.318,5.772H344.23a7.452,7.452,0,0,0-1.866-3.111,8.456,8.456,0,0,0-3.369-2,15.527,15.527,0,0,0-4.893-.687,16.16,16.16,0,0,0-6.18,1.094,8.994,8.994,0,0,0-4.12,3.219,9.068,9.068,0,0,0-1.459,5.257A8.889,8.889,0,0,0,323.8,19.7a9.048,9.048,0,0,0,4.12,3.2,16.16,16.16,0,0,0,6.18,1.094,15.327,15.327,0,0,0,4.871-.687,8.6,8.6,0,0,0,3.347-1.974,7.757,7.757,0,0,0,1.91-3Z" transform="translate(-175.425 0)"/>
        <path id="Path_6" data-name="Path 6" d="M411.879,36.953a18.238,18.238,0,0,1-7.1-1.288,10.7,10.7,0,0,1-4.785-3.755,10.37,10.37,0,0,1-1.716-6.072,10.576,10.576,0,0,1,1.716-6.116,10.6,10.6,0,0,1,4.785-3.8,18.246,18.246,0,0,1,7.1-1.287,17.931,17.931,0,0,1,7.06,1.287,10.631,10.631,0,0,1,4.742,3.8,10.579,10.579,0,0,1,1.717,6.116,10.374,10.374,0,0,1-1.717,6.072,10.736,10.736,0,0,1-4.742,3.755,17.922,17.922,0,0,1-7.06,1.288m0-4.291a9.753,9.753,0,0,0,4.013-.794,6.234,6.234,0,0,0,3.841-6.03,6.679,6.679,0,0,0-1.03-3.755,6.568,6.568,0,0,0-2.789-2.382,9.5,9.5,0,0,0-4.034-.816,9.683,9.683,0,0,0-4.034.816,6.717,6.717,0,0,0-2.854,2.36,6.555,6.555,0,0,0-1.051,3.777,6.209,6.209,0,0,0,3.862,6.03,10.009,10.009,0,0,0,4.077.794" transform="translate(-220.775 -8.113)"/>
        <path id="Path_7" data-name="Path 7" d="M466.574,15.109h5.579V36.438h-5.579Zm15.492-.472a12.361,12.361,0,0,1,3.648.515,8.028,8.028,0,0,1,2.918,1.588,7.158,7.158,0,0,1,1.931,2.725,10.212,10.212,0,0,1,.687,3.927V36.438h-5.579V24.378a5.311,5.311,0,0,0-1.309-3.97,6,6,0,0,0-4.27-1.266,9.272,9.272,0,0,0-4.034.858,8.652,8.652,0,0,0-2.918,2.167,5.146,5.146,0,0,0-1.287,2.725l-.043-2.188a8.6,8.6,0,0,1,.987-2.919,9.856,9.856,0,0,1,5.193-4.463,11.4,11.4,0,0,1,4.077-.687m18.582,0a12.364,12.364,0,0,1,3.648.515,8.037,8.037,0,0,1,2.918,1.588,7.361,7.361,0,0,1,1.952,2.725,9.922,9.922,0,0,1,.708,3.927V36.438H504.3V24.378a5.259,5.259,0,0,0-1.331-3.97,6.087,6.087,0,0,0-4.292-1.266,9.266,9.266,0,0,0-4.033.858,8.654,8.654,0,0,0-2.919,2.167,4.865,4.865,0,0,0-1.244,2.725l-.086-2.317a8.1,8.1,0,0,1,1.03-2.832,10.066,10.066,0,0,1,2.146-2.575,10.359,10.359,0,0,1,3.112-1.846,10.966,10.966,0,0,1,3.97-.687" transform="translate(-258.635 -8.113)"/>
        <path id="Path_8" data-name="Path 8" d="M573.258,15.108h5.321l.258,5.665V45.02h-5.579Zm15.535,21.844a10.609,10.609,0,0,1-4.828-1.009,9.134,9.134,0,0,1-3.24-2.661,11.573,11.573,0,0,1-1.845-3.626,13.205,13.205,0,0,1-.6-3.863,15.814,15.814,0,0,1,.579-4.377,9.8,9.8,0,0,1,1.824-3.541,8.374,8.374,0,0,1,3.24-2.382,12.327,12.327,0,0,1,4.871-.858,11.82,11.82,0,0,1,5.794,1.416,10.8,10.8,0,0,1,4.1,3.927,10.985,10.985,0,0,1,1.524,5.815,11.027,11.027,0,0,1-1.545,5.9,10.634,10.634,0,0,1-4.12,3.884,12.031,12.031,0,0,1-5.75,1.373m-1.8-4.335a8.677,8.677,0,0,0,3.97-.858,6.312,6.312,0,0,0,2.617-2.382,6.779,6.779,0,0,0,.923-3.583,6.611,6.611,0,0,0-1.952-4.978,7.671,7.671,0,0,0-5.558-1.889,10.253,10.253,0,0,0-4.142.816,6.864,6.864,0,0,0-2.94,2.339,6.283,6.283,0,0,0-1.073,3.712,6.435,6.435,0,0,0,.987,3.583,6.569,6.569,0,0,0,2.832,2.382,10.178,10.178,0,0,0,4.335.858" transform="translate(-317.773 -8.113)"/>
        <path id="Path_9" data-name="Path 9" d="M650.673,36.909a12.008,12.008,0,0,1-5.772-1.395,10.593,10.593,0,0,1-4.12-3.905,10.983,10.983,0,0,1-1.523-5.815,10.921,10.921,0,0,1,1.545-5.88,10.736,10.736,0,0,1,4.184-3.884,12.622,12.622,0,0,1,5.987-1.395,10.663,10.663,0,0,1,5.943,1.481A8.536,8.536,0,0,1,660.2,20.13a14.919,14.919,0,0,1,1.03,5.664,13.007,13.007,0,0,1-.6,3.841,11.651,11.651,0,0,1-1.845,3.605,9.1,9.1,0,0,1-3.262,2.66,10.746,10.746,0,0,1-4.849,1.009m1.8-4.292a10.3,10.3,0,0,0,4.378-.858,6.8,6.8,0,0,0,2.81-9.677,6.333,6.333,0,0,0-2.832-2.317,10.882,10.882,0,0,0-4.356-.794,7.738,7.738,0,0,0-5.536,1.866,6.5,6.5,0,0,0-1.974,4.957,6.663,6.663,0,0,0,.944,3.583,6.455,6.455,0,0,0,2.64,2.382,8.572,8.572,0,0,0,3.926.858m8.2-17.51h5.579V36.437h-5.193q-.215-1.673-.3-2.961t-.086-2.532Z" transform="translate(-354.359 -8.113)"/>
        <path id="Path_10" data-name="Path 10" d="M709.377,15.109h5.579V36.438h-5.579Zm15.492-.472a12.364,12.364,0,0,1,3.648.515,8.031,8.031,0,0,1,2.918,1.588,7.153,7.153,0,0,1,1.931,2.725,10.2,10.2,0,0,1,.687,3.927V36.438h-5.579V24.378a5.311,5.311,0,0,0-1.309-3.97,6,6,0,0,0-4.27-1.266,9.268,9.268,0,0,0-4.034.858,8.647,8.647,0,0,0-2.918,2.167,5.146,5.146,0,0,0-1.288,2.725l-.043-2.188a8.611,8.611,0,0,1,.987-2.919,9.855,9.855,0,0,1,5.193-4.463,11.394,11.394,0,0,1,4.077-.687" transform="translate(-393.228 -8.113)"/>
        <path id="Path_11" data-name="Path 11" d="M767.479,15.695H773.4l9.227,20.471-4.806.858Zm26.093,0L778.809,45.607h-5.794l6.308-11.759,8.283-18.153Z" transform="translate(-425.436 -8.7)"/>
      </g>
    </g>
  </g>
</svg>
